<svg width="159" height="20" viewBox="0 0 159 20" fill="none" xmlns="http://www.w3.org/2000/svg">
<path d="M2.1 19.2C1.7 19.2 1.375 19.1083 1.125 18.925C0.891667 18.7417 0.75 18.5 0.7 18.2C0.65 17.8833 0.708333 17.5333 0.875 17.15L7.475 2.525C7.69167 2.04167 7.95 1.7 8.25 1.5C8.56667 1.28333 8.925 1.175 9.325 1.175C9.70833 1.175 10.05 1.28333 10.35 1.5C10.6667 1.7 10.9333 2.04167 11.15 2.525L17.775 17.15C17.9583 17.5333 18.025 17.8833 17.975 18.2C17.925 18.5167 17.7833 18.7667 17.55 18.95C17.3167 19.1167 17.0083 19.2 16.625 19.2C16.1583 19.2 15.7917 19.0917 15.525 18.875C15.275 18.6417 15.05 18.2917 14.85 17.825L13.225 14.05L14.575 14.925H4.025L5.375 14.05L3.775 17.825C3.55833 18.3083 3.33333 18.6583 3.1 18.875C2.86667 19.0917 2.53333 19.2 2.1 19.2ZM9.275 4.85L5.775 13.175L5.125 12.375H13.475L12.85 13.175L9.325 4.85H9.275ZM21.7785 19.2C21.2785 19.2 20.8952 19.0667 20.6285 18.8C20.3618 18.5167 20.2285 18.1167 20.2285 17.6V2.75C20.2285 2.23333 20.3618 1.84167 20.6285 1.575C20.8952 1.30833 21.2785 1.175 21.7785 1.175C22.2785 1.175 22.6618 1.30833 22.9285 1.575C23.2118 1.84167 23.3535 2.23333 23.3535 2.75V9.225H23.0035C23.3702 8.34167 23.9368 7.675 24.7035 7.225C25.4868 6.75833 26.3702 6.525 27.3535 6.525C28.3368 6.525 29.1452 6.70833 29.7785 7.075C30.4118 7.44167 30.8868 8 31.2035 8.75C31.5202 9.48333 31.6785 10.4167 31.6785 11.55V17.6C31.6785 18.1167 31.5452 18.5167 31.2785 18.8C31.0118 19.0667 30.6285 19.2 30.1285 19.2C29.6285 19.2 29.2368 19.0667 28.9535 18.8C28.6868 18.5167 28.5535 18.1167 28.5535 17.6V11.7C28.5535 10.75 28.3702 10.0583 28.0035 9.625C27.6535 9.19167 27.1035 8.975 26.3535 8.975C25.4368 8.975 24.7035 9.26667 24.1535 9.85C23.6202 10.4167 23.3535 11.175 23.3535 12.125V17.6C23.3535 18.6667 22.8285 19.2 21.7785 19.2ZM36.4525 19.2C35.9525 19.2 35.5692 19.0667 35.3025 18.8C35.0359 18.5167 34.9025 18.1167 34.9025 17.6V8.15C34.9025 7.63333 35.0359 7.24167 35.3025 6.975C35.5692 6.70833 35.9442 6.575 36.4275 6.575C36.9109 6.575 37.2859 6.70833 37.5525 6.975C37.8192 7.24167 37.9525 7.63333 37.9525 8.15V9.975L37.6775 9.225C38.0109 8.39167 38.5275 7.73333 39.2275 7.25C39.9275 6.76667 40.7609 6.525 41.7275 6.525C42.7109 6.525 43.5192 6.75833 44.1525 7.225C44.7859 7.69167 45.2275 8.40833 45.4775 9.375H45.1275C45.4609 8.49167 46.0109 7.8 46.7775 7.3C47.5442 6.78333 48.4275 6.525 49.4275 6.525C50.3609 6.525 51.1275 6.70833 51.7275 7.075C52.3442 7.44167 52.8025 8 53.1025 8.75C53.4025 9.48333 53.5525 10.4167 53.5525 11.55V17.6C53.5525 18.1167 53.4109 18.5167 53.1275 18.8C52.8609 19.0667 52.4775 19.2 51.9775 19.2C51.4775 19.2 51.0942 19.0667 50.8275 18.8C50.5609 18.5167 50.4275 18.1167 50.4275 17.6V11.675C50.4275 10.7417 50.2692 10.0583 49.9525 9.625C49.6525 9.19167 49.1359 8.975 48.4025 8.975C47.5859 8.975 46.9442 9.26667 46.4775 9.85C46.0109 10.4167 45.7775 11.2083 45.7775 12.225V17.6C45.7775 18.1167 45.6442 18.5167 45.3775 18.8C45.1109 19.0667 44.7275 19.2 44.2275 19.2C43.7275 19.2 43.3359 19.0667 43.0525 18.8C42.7859 18.5167 42.6525 18.1167 42.6525 17.6V11.675C42.6525 10.7417 42.4942 10.0583 42.1775 9.625C41.8775 9.19167 41.3692 8.975 40.6525 8.975C39.8359 8.975 39.1942 9.26667 38.7275 9.85C38.2609 10.4167 38.0275 11.2083 38.0275 12.225V17.6C38.0275 18.6667 37.5025 19.2 36.4525 19.2ZM60.8014 19.25C59.918 19.25 59.1264 19.0833 58.4264 18.75C57.743 18.4 57.2014 17.9333 56.8014 17.35C56.418 16.7667 56.2264 16.1083 56.2264 15.375C56.2264 14.475 56.4597 13.7667 56.9264 13.25C57.393 12.7167 58.1514 12.3333 59.2014 12.1C60.2514 11.8667 61.6597 11.75 63.4264 11.75H64.6764V13.55H63.4514C62.418 13.55 61.593 13.6 60.9764 13.7C60.3597 13.8 59.918 13.975 59.6514 14.225C59.4014 14.4583 59.2764 14.7917 59.2764 15.225C59.2764 15.775 59.468 16.225 59.8514 16.575C60.2347 16.925 60.768 17.1 61.4514 17.1C62.0014 17.1 62.4847 16.975 62.9014 16.725C63.3347 16.4583 63.6764 16.1 63.9264 15.65C64.1764 15.2 64.3014 14.6833 64.3014 14.1V11.225C64.3014 10.3917 64.118 9.79167 63.7514 9.425C63.3847 9.05833 62.768 8.875 61.9014 8.875C61.418 8.875 60.893 8.93333 60.3264 9.05C59.7764 9.16667 59.193 9.36667 58.5764 9.65C58.2597 9.8 57.9764 9.84167 57.7264 9.775C57.493 9.70833 57.3097 9.575 57.1764 9.375C57.043 9.15833 56.9764 8.925 56.9764 8.675C56.9764 8.425 57.043 8.18333 57.1764 7.95C57.3097 7.7 57.5347 7.51667 57.8514 7.4C58.618 7.08333 59.3514 6.85833 60.0514 6.725C60.768 6.59167 61.418 6.525 62.0014 6.525C63.2014 6.525 64.1847 6.70833 64.9514 7.075C65.7347 7.44167 66.318 8 66.7014 8.75C67.0847 9.48333 67.2764 10.4333 67.2764 11.6V17.6C67.2764 18.1167 67.1514 18.5167 66.9014 18.8C66.6514 19.0667 66.293 19.2 65.8264 19.2C65.3597 19.2 64.993 19.0667 64.7264 18.8C64.4764 18.5167 64.3514 18.1167 64.3514 17.6V16.4H64.5514C64.4347 16.9833 64.2014 17.4917 63.8514 17.925C63.518 18.3417 63.093 18.6667 62.5764 18.9C62.0597 19.1333 61.468 19.25 60.8014 19.25ZM75.1482 19.25C74.0816 19.25 73.1399 18.9917 72.3232 18.475C71.5232 17.9583 70.8982 17.225 70.4482 16.275C69.9982 15.3083 69.7732 14.175 69.7732 12.875C69.7732 11.5583 69.9982 10.4333 70.4482 9.5C70.8982 8.55 71.5232 7.81667 72.3232 7.3C73.1399 6.78333 74.0816 6.525 75.1482 6.525C76.1649 6.525 77.0482 6.775 77.7982 7.275C78.5649 7.775 79.0816 8.43333 79.3482 9.25H79.0732V2.75C79.0732 2.23333 79.2066 1.84167 79.4732 1.575C79.7399 1.30833 80.1232 1.175 80.6232 1.175C81.1232 1.175 81.5066 1.30833 81.7732 1.575C82.0566 1.84167 82.1982 2.23333 82.1982 2.75V17.6C82.1982 18.1167 82.0649 18.5167 81.7982 18.8C81.5316 19.0667 81.1482 19.2 80.6482 19.2C80.1482 19.2 79.7649 19.0667 79.4982 18.8C79.2316 18.5167 79.0982 18.1167 79.0982 17.6V15.65L79.3732 16.4C79.1232 17.2667 78.6149 17.9583 77.8482 18.475C77.0816 18.9917 76.1816 19.25 75.1482 19.25ZM76.0232 16.875C76.6399 16.875 77.1816 16.725 77.6482 16.425C78.1149 16.125 78.4732 15.6833 78.7232 15.1C78.9899 14.5 79.1232 13.7583 79.1232 12.875C79.1232 11.5417 78.8399 10.55 78.2732 9.9C77.7066 9.23333 76.9566 8.9 76.0232 8.9C75.4066 8.9 74.8649 9.05 74.3982 9.35C73.9316 9.63333 73.5649 10.075 73.2982 10.675C73.0482 11.2583 72.9232 11.9917 72.9232 12.875C72.9232 14.1917 73.2066 15.1917 73.7732 15.875C74.3399 16.5417 75.0899 16.875 76.0232 16.875ZM94.1756 19.2C93.6589 19.2 93.2506 19.0583 92.9506 18.775C92.6673 18.475 92.5256 18.05 92.5256 17.5V3.075C92.5256 2.525 92.6673 2.10833 92.9506 1.825C93.2506 1.525 93.6756 1.375 94.2256 1.375H102.951C103.384 1.375 103.709 1.48333 103.926 1.7C104.142 1.91667 104.251 2.225 104.251 2.625C104.251 3.04167 104.142 3.36667 103.926 3.6C103.709 3.81667 103.384 3.925 102.951 3.925H95.7256V8.9H102.426C102.842 8.9 103.159 9.00833 103.376 9.225C103.609 9.44167 103.726 9.75 103.726 10.15C103.726 10.5667 103.609 10.8917 103.376 11.125C103.159 11.3417 102.842 11.45 102.426 11.45H95.7256V17.5C95.7256 18.6333 95.2089 19.2 94.1756 19.2ZM109.8 19.25C108.917 19.25 108.125 19.0833 107.425 18.75C106.742 18.4 106.2 17.9333 105.8 17.35C105.417 16.7667 105.225 16.1083 105.225 15.375C105.225 14.475 105.459 13.7667 105.925 13.25C106.392 12.7167 107.15 12.3333 108.2 12.1C109.25 11.8667 110.659 11.75 112.425 11.75H113.675V13.55H112.45C111.417 13.55 110.592 13.6 109.975 13.7C109.359 13.8 108.917 13.975 108.65 14.225C108.4 14.4583 108.275 14.7917 108.275 15.225C108.275 15.775 108.467 16.225 108.85 16.575C109.234 16.925 109.767 17.1 110.45 17.1C111 17.1 111.484 16.975 111.9 16.725C112.334 16.4583 112.675 16.1 112.925 15.65C113.175 15.2 113.3 14.6833 113.3 14.1V11.225C113.3 10.3917 113.117 9.79167 112.75 9.425C112.384 9.05833 111.767 8.875 110.9 8.875C110.417 8.875 109.892 8.93333 109.325 9.05C108.775 9.16667 108.192 9.36667 107.575 9.65C107.259 9.8 106.975 9.84167 106.725 9.775C106.492 9.70833 106.309 9.575 106.175 9.375C106.042 9.15833 105.975 8.925 105.975 8.675C105.975 8.425 106.042 8.18333 106.175 7.95C106.309 7.7 106.534 7.51667 106.85 7.4C107.617 7.08333 108.35 6.85833 109.05 6.725C109.767 6.59167 110.417 6.525 111 6.525C112.2 6.525 113.184 6.70833 113.95 7.075C114.734 7.44167 115.317 8 115.7 8.75C116.084 9.48333 116.275 10.4333 116.275 11.6V17.6C116.275 18.1167 116.15 18.5167 115.9 18.8C115.65 19.0667 115.292 19.2 114.825 19.2C114.359 19.2 113.992 19.0667 113.725 18.8C113.475 18.5167 113.35 18.1167 113.35 17.6V16.4H113.55C113.434 16.9833 113.2 17.4917 112.85 17.925C112.517 18.3417 112.092 18.6667 111.575 18.9C111.059 19.1333 110.467 19.25 109.8 19.25ZM120.997 19.175C120.497 19.175 120.114 19.025 119.847 18.725C119.581 18.425 119.447 18.0083 119.447 17.475V8.3C119.447 7.75 119.581 7.33333 119.847 7.05C120.114 6.75 120.497 6.6 120.997 6.6C121.497 6.6 121.881 6.75 122.147 7.05C122.431 7.33333 122.572 7.75 122.572 8.3V17.475C122.572 18.0083 122.439 18.425 122.172 18.725C121.906 19.025 121.514 19.175 120.997 19.175ZM120.997 4.275C120.414 4.275 119.956 4.13333 119.622 3.85C119.306 3.55 119.147 3.14167 119.147 2.625C119.147 2.09167 119.306 1.68333 119.622 1.4C119.956 1.11667 120.414 0.975 120.997 0.975C121.597 0.975 122.056 1.11667 122.372 1.4C122.689 1.68333 122.847 2.09167 122.847 2.625C122.847 3.14167 122.689 3.55 122.372 3.85C122.056 4.13333 121.597 4.275 120.997 4.275ZM130.294 19.25C129.578 19.25 128.819 19.175 128.019 19.025C127.219 18.875 126.503 18.6167 125.869 18.25C125.603 18.0833 125.411 17.8917 125.294 17.675C125.194 17.4417 125.153 17.2167 125.169 17C125.203 16.7667 125.286 16.5667 125.419 16.4C125.569 16.2333 125.753 16.125 125.969 16.075C126.203 16.025 126.453 16.0667 126.719 16.2C127.386 16.5167 128.011 16.7417 128.594 16.875C129.178 16.9917 129.753 17.05 130.319 17.05C131.119 17.05 131.711 16.9167 132.094 16.65C132.494 16.3667 132.694 16 132.694 15.55C132.694 15.1667 132.561 14.875 132.294 14.675C132.044 14.4583 131.661 14.3 131.144 14.2L128.644 13.725C127.611 13.525 126.819 13.15 126.269 12.6C125.736 12.0333 125.469 11.3083 125.469 10.425C125.469 9.625 125.686 8.93333 126.119 8.35C126.569 7.76667 127.186 7.31667 127.969 7C128.753 6.68333 129.653 6.525 130.669 6.525C131.403 6.525 132.086 6.60833 132.719 6.775C133.369 6.925 133.994 7.16667 134.594 7.5C134.844 7.63333 135.011 7.80833 135.094 8.025C135.194 8.24167 135.219 8.46667 135.169 8.7C135.119 8.91667 135.019 9.11667 134.869 9.3C134.719 9.46667 134.528 9.575 134.294 9.625C134.078 9.65833 133.828 9.60833 133.544 9.475C133.028 9.20833 132.528 9.01667 132.044 8.9C131.578 8.78333 131.128 8.725 130.694 8.725C129.878 8.725 129.269 8.86667 128.869 9.15C128.486 9.43333 128.294 9.80833 128.294 10.275C128.294 10.625 128.411 10.9167 128.644 11.15C128.878 11.3833 129.236 11.5417 129.719 11.625L132.219 12.1C133.303 12.3 134.119 12.6667 134.669 13.2C135.236 13.7333 135.519 14.45 135.519 15.35C135.519 16.5667 135.044 17.525 134.094 18.225C133.144 18.9083 131.878 19.25 130.294 19.25ZM142.051 19.25C141.168 19.25 140.376 19.0833 139.676 18.75C138.993 18.4 138.451 17.9333 138.051 17.35C137.668 16.7667 137.476 16.1083 137.476 15.375C137.476 14.475 137.71 13.7667 138.176 13.25C138.643 12.7167 139.401 12.3333 140.451 12.1C141.501 11.8667 142.91 11.75 144.676 11.75H145.926V13.55H144.701C143.668 13.55 142.843 13.6 142.226 13.7C141.61 13.8 141.168 13.975 140.901 14.225C140.651 14.4583 140.526 14.7917 140.526 15.225C140.526 15.775 140.718 16.225 141.101 16.575C141.485 16.925 142.018 17.1 142.701 17.1C143.251 17.1 143.735 16.975 144.151 16.725C144.585 16.4583 144.926 16.1 145.176 15.65C145.426 15.2 145.551 14.6833 145.551 14.1V11.225C145.551 10.3917 145.368 9.79167 145.001 9.425C144.635 9.05833 144.018 8.875 143.151 8.875C142.668 8.875 142.143 8.93333 141.576 9.05C141.026 9.16667 140.443 9.36667 139.826 9.65C139.51 9.8 139.226 9.84167 138.976 9.775C138.743 9.70833 138.56 9.575 138.426 9.375C138.293 9.15833 138.226 8.925 138.226 8.675C138.226 8.425 138.293 8.18333 138.426 7.95C138.56 7.7 138.785 7.51667 139.101 7.4C139.868 7.08333 140.601 6.85833 141.301 6.725C142.018 6.59167 142.668 6.525 143.251 6.525C144.451 6.525 145.435 6.70833 146.201 7.075C146.985 7.44167 147.568 8 147.951 8.75C148.335 9.48333 148.526 10.4333 148.526 11.6V17.6C148.526 18.1167 148.401 18.5167 148.151 18.8C147.901 19.0667 147.543 19.2 147.076 19.2C146.61 19.2 146.243 19.0667 145.976 18.8C145.726 18.5167 145.601 18.1167 145.601 17.6V16.4H145.801C145.685 16.9833 145.451 17.4917 145.101 17.925C144.768 18.3417 144.343 18.6667 143.826 18.9C143.31 19.1333 142.718 19.25 142.051 19.25ZM155.873 19.25C154.49 19.25 153.448 18.8583 152.748 18.075C152.048 17.275 151.698 16.1083 151.698 14.575V2.75C151.698 2.23333 151.832 1.84167 152.098 1.575C152.365 1.30833 152.748 1.175 153.248 1.175C153.748 1.175 154.132 1.30833 154.398 1.575C154.682 1.84167 154.823 2.23333 154.823 2.75V14.425C154.823 15.1917 154.982 15.7583 155.298 16.125C155.632 16.4917 156.098 16.675 156.698 16.675C156.832 16.675 156.957 16.675 157.073 16.675C157.19 16.6583 157.307 16.6417 157.423 16.625C157.657 16.5917 157.815 16.6583 157.898 16.825C157.982 16.975 158.023 17.2917 158.023 17.775C158.023 18.1917 157.94 18.5167 157.773 18.75C157.607 18.9833 157.332 19.125 156.948 19.175C156.782 19.1917 156.607 19.2083 156.423 19.225C156.24 19.2417 156.057 19.25 155.873 19.25Z" fill="#242D49"/>
</svg>
